<?xml version="1.0" encoding="UTF-8"?>
<svg id="Blueberry" data-name="Blueberry" xmlns="http://www.w3.org/2000/svg" viewBox="0 0 199.38 252">
  <defs>
    <style>
      .cls-1 {
        fill: #344473;
      }

      .cls-1, .cls-2, .cls-3, .cls-4, .cls-5, .cls-6 {
        stroke-width: 0px;
      }

      .cls-2 {
        fill: #5b65ae;
      }

      .cls-3 {
        fill: #5d913f;
      }

      .cls-4 {
        fill: #253456;
      }

      .cls-5 {
        fill: #a88dc2;
      }

      .cls-6 {
        fill: #78b354;
      }
    </style>
  </defs>
  <g id="Layer_1-2" data-name="Layer 1">
    <g id="Blueberry">
      <path class="cls-3" d="m.83,0s54.68,5.75,79.72,37.9c29.93,38.43,8.32,74.32,8.32,74.32,0,0-45.04-3.97-65.62-29.47C-6.65,45.7.83,0,.83,0Z"/>
      <path class="cls-6" d="m129.77,0s8.52,43.1-9.39,69.73c-21.41,31.83-52.99,23.71-52.99,23.71,0,0-7.59-35.32,6.45-57C94.25,4.95,129.77,0,129.77,0Z"/>
      <ellipse class="cls-5" cx="54.74" cy="129.55" rx="23.57" ry="23.34" transform="translate(-84.82 112.18) rotate(-60)"/>
      <ellipse class="cls-2" cx="100.8" cy="162.93" rx="98.58" ry="89.07"/>
      <path class="cls-1" d="m50.42,112.99c6.55-11.46,15.86-5.51,26.89-12.75,8.87-5.83,10.07-14.69,19.41-14.69s14.97,7.77,20.24,9.71c12.39,4.56,19.78-2.13,29.12,7.21s-7.21,17.75-8.6,24.95c-1.76,9.17,9.71,15.8,1.66,20.24-11.55,6.38-14.46-5.19-33.11-4.28-14.02.68-19.57,14.26-31.77,10.1-12.5-4.26,4.43-16.35-3.05-24.12-9.16-9.5-25.22-8.59-20.79-16.35h0Z"/>
      <ellipse class="cls-4" cx="102.92" cy="117.06" rx="35.08" ry="22.28"/>
    </g>
  </g>
  
</svg>