<?xml version="1.0" encoding="UTF-8"?>
<svg id="Grapefruit" data-name="Grapefruit" xmlns="http://www.w3.org/2000/svg" viewBox="0 0 212 212">
  <defs>
    <style>
      .cls-1 {
        fill: #004465;
      }

      .cls-1, .cls-2, .cls-3, .cls-4 {
        stroke-width: 0px;
      }

      .cls-2 {
        fill: #fffcf0;
      }

      .cls-3 {
        fill: #f2b53a;
      }

      .cls-4 {
        fill: #f15b57;
      }

  

    </style>
  </defs>
  <g id="Layer_1-2" data-name="Layer 1">
    <g id="Grapefruit">
      <path class="cls-3" d="m2.55,106.43c0,57.13,46.32,103.45,103.45,103.45s103.45-46.32,103.45-103.45S163.13,2.98,106,2.98,2.55,49.3,2.55,106.43Z"/>
      <path class="cls-4" d="m104.34,17.45c9.96,0,26.12,12.1,34.83,14.45,8.71,2.34,26.65,6.93,28.61,10.29s11.31,29.2,14.45,34.6c3.11,5.43,11.31,19.93,11.31,27.7s-9.35,23.37-11.7,29.99c-2.34,6.65-4.69,25.63-11.31,31.93s-52.92,27.77-62.56,27.77-26.32-10.52-31.62-12.49c-5.3-1.96-27.95-6.65-30.68-10.55-2.73-3.9-11.34-22.98-13.48-29.43s-14.98-31.24-15.39-38.42c-.41-7.19,14.42-24.69,15.39-32.05.99-7.36,5.27-25.4,11.52-29.07,6.24-3.67,26.22-8.74,32.62-12.26,6.37-3.49,28-12.46,28-12.46h0Z"/>
      <path class="cls-2" d="m73.97,106.43c0,17.69,14.32,32.04,32.01,32.05,17.69,0,32.04-14.32,32.05-32.01v-.03c0-17.69-14.34-32.03-32.03-32.03-17.69,0-32.03,14.34-32.03,32.03h0s0,0,0,0Z"/>
      <path class="cls-1" d="m189.19,83.12c-1.89-3.29-3.67-6.4-4.97-9.53-1.38-3.29-2.34-6.88-3.41-10.65-2.14-7.77-4.38-15.82-10.17-21.61-5.78-5.78-13.81-8-21.61-10.17-3.8-1.04-7.36-2.04-10.65-3.41-3.11-1.3-6.22-3.08-9.53-4.97-7.06-4.05-14.35-8.23-22.88-8.23s-15.85,4.18-22.88,8.23c-3.29,1.89-6.4,3.67-9.53,4.97-3.29,1.38-6.88,2.37-10.65,3.41-7.77,2.14-15.82,4.38-21.61,10.17-5.78,5.78-8,13.81-10.17,21.61-1.04,3.8-2.04,7.36-3.41,10.65-1.3,3.11-3.08,6.24-4.97,9.53-4.05,7.06-8.23,14.32-8.23,22.88s4.18,15.85,8.23,22.88c1.89,3.29,3.67,6.4,4.97,9.53,1.38,3.29,2.37,6.88,3.41,10.65,2.14,7.77,4.38,15.8,10.17,21.61,5.78,5.78,13.84,8,21.61,10.17,3.8,1.04,7.36,2.04,10.65,3.41,3.11,1.3,6.22,3.08,9.53,4.97,7.03,4.05,14.32,8.23,22.88,8.23s15.82-4.18,22.88-8.23c3.29-1.89,6.4-3.69,9.53-4.97,3.29-1.38,6.88-2.34,10.65-3.41,7.77-2.14,15.82-4.38,21.61-10.17s8-13.84,10.17-21.61c1.04-3.8,2.04-7.36,3.41-10.65,1.3-3.11,3.08-6.22,4.97-9.53,4.05-7.06,8.26-14.35,8.26-22.88s-4.2-15.82-8.26-22.88Zm-5.4,42.65c-1.91,3.31-3.87,6.75-5.33,10.24-1.5,3.64-2.6,7.59-3.64,11.39-2.01,7.31-3.92,14.22-8.56,18.86-4.61,4.61-11.54,6.52-18.86,8.56-3.8,1.04-7.75,2.14-11.39,3.64-3.49,1.45-6.93,3.41-10.24,5.33-6.62,3.82-12.89,7.41-19.77,7.41s-13.15-3.59-19.77-7.41c-3.31-1.91-6.75-3.87-10.24-5.33-3.64-1.5-7.59-2.6-11.39-3.64-7.31-2.01-14.22-3.95-18.86-8.56-4.61-4.61-6.52-11.54-8.56-18.86-1.04-3.8-2.14-7.75-3.64-11.39-1.45-3.49-3.41-6.93-5.33-10.24-3.82-6.62-7.41-12.89-7.41-19.77s3.59-13.15,7.41-19.77c1.91-3.31,3.87-6.75,5.33-10.24,1.5-3.64,2.6-7.59,3.64-11.39,2.01-7.31,3.92-14.22,8.56-18.86,4.61-4.61,11.54-6.52,18.86-8.56,3.8-1.04,7.75-2.14,11.39-3.64,3.49-1.45,6.93-3.41,10.24-5.33,6.62-3.82,12.89-7.41,19.77-7.41s13.15,3.59,19.77,7.41c3.31,1.91,6.75,3.87,10.24,5.33,3.64,1.5,7.59,2.6,11.39,3.64,7.31,2.01,14.22,3.92,18.86,8.56,4.61,4.61,6.52,11.54,8.56,18.86,1.04,3.8,2.14,7.72,3.64,11.39,1.45,3.49,3.41,6.93,5.33,10.24,3.82,6.62,7.41,12.89,7.41,19.77s-3.62,13.15-7.41,19.77Z"/>
      <path class="cls-1" d="m106,0C47.55,0,0,47.55,0,106s47.55,106,106,106,106-47.55,106-106S164.45,0,106,0Zm0,205.48c-54.86,0-99.48-44.62-99.48-99.48S51.14,6.52,106,6.52s99.48,44.62,99.48,99.48-44.62,99.48-99.48,99.48Z"/>
      <path class="cls-1" d="m106,70.07c-19.82,0-35.93,16.13-35.93,35.93s16.13,35.93,35.93,35.93,35.93-16.13,35.93-35.93-16.1-35.93-35.93-35.93Zm0,65.61c-16.38,0-29.69-13.33-29.69-29.69s13.33-29.69,29.69-29.69,29.69,13.33,29.69,29.69-13.33,29.69-29.69,29.69Z"/>
      <path class="cls-1" d="m106,88.09c-9.89,0-17.91,8.03-17.91,17.91s8.03,17.91,17.91,17.91,17.91-8.05,17.91-17.91-8.03-17.91-17.91-17.91Zm0,29.58c-6.45,0-11.67-5.25-11.67-11.67s5.25-11.67,11.67-11.67,11.67,5.25,11.67,11.67-5.22,11.67-11.67,11.67Z"/>
      <path class="cls-1" d="m138.03,183.92c-1.2,0-2.34-.69-2.85-1.86l-18.78-42.94c-.69-1.58.03-3.41,1.61-4.1,1.58-.69,3.41.03,4.1,1.61l18.78,42.94c.69,1.58-.03,3.41-1.61,4.1-.41.18-.84.25-1.25.25h0Zm-46.07-105.39c-1.2,0-2.34-.69-2.85-1.86l-18.78-42.94c-.69-1.58.03-3.41,1.61-4.1,1.58-.69,3.41.03,4.1,1.61l18.78,42.91c.69,1.58-.03,3.41-1.61,4.1-.41.2-.84.28-1.25.28h0Zm88.16,61.03c-.46,0-.92-.1-1.35-.31l-42.09-20.26c-1.55-.74-2.22-2.62-1.45-4.18.74-1.55,2.62-2.19,4.18-1.45l42.09,20.26c1.55.74,2.22,2.62,1.45,4.18-.56,1.12-1.68,1.76-2.83,1.76h0Zm-59.68-60.13c-.41,0-.82-.08-1.2-.25-1.58-.66-2.34-2.5-1.66-4.08l18.7-44.44c.66-1.58,2.52-2.32,4.08-1.66,1.58.66,2.34,2.5,1.66,4.08l-18.7,44.44c-.51,1.2-1.66,1.91-2.88,1.91Zm17.58,22.04c-1.15,0-2.27-.64-2.8-1.76-.76-1.55-.1-3.41,1.43-4.18l44.18-21.56c1.55-.76,3.41-.1,4.18,1.43.76,1.55.1,3.41-1.43,4.18l-44.21,21.58c-.43.2-.89.31-1.35.31Zm-64.06.51c-.46,0-.92-.1-1.38-.31l-44.18-21.56c-1.55-.76-2.19-2.62-1.43-4.18s2.62-2.19,4.18-1.43l44.18,21.56c1.55.76,2.19,2.62,1.43,4.18-.54,1.1-1.66,1.73-2.8,1.73h0Zm-41.36,42.4c-1.17,0-2.32-.66-2.83-1.81-.71-1.55-.05-3.41,1.53-4.15l44.18-20.41c1.58-.71,3.41-.05,4.15,1.53.71,1.55.05,3.41-1.53,4.15l-44.18,20.41c-.43.18-.89.28-1.32.28h0Zm41.36,39.72c-.41,0-.82-.08-1.2-.23-1.58-.66-2.34-2.5-1.68-4.08l17.94-42.99c.66-1.58,2.5-2.34,4.08-1.68s2.34,2.5,1.68,4.08l-17.94,42.99c-.48,1.17-1.66,1.91-2.88,1.91h0Z"/>
    </g>
  </g>

<script>
const vectorGraphic = document.querySelector('#Grapefruit');
console.log(vectorGraphic)

function logThisId() {
    console.log(this);
    console.log('Clicked on this element:', this.id);
}

vectorGraphic.addEventListener('click', logThisId);
</script>

</svg>