<?xml version="1.0" encoding="UTF-8"?>
<svg id="Lime" data-name="Lime" xmlns="http://www.w3.org/2000/svg" viewBox="0 0 222.45 190.67">
  <defs>
    <style>
      .cls-1 {
        fill: #a9d26b;
      }

      .cls-1, .cls-2 {
        stroke-width: 0px;
      }

      .cls-2 {
        fill: #88c057;
      }
    </style>
  </defs>
  <g id="Layer_1-2" data-name="Layer 1">
    <g id="Lime">
      <g>
        <path class="cls-2" d="m208.55,80.5h-1.18C200.1,34.9,159.83,0,111.23,0S22.36,34.9,15.08,80.5h-1.18c-7.65,0-13.9,7.63-13.9,16.95s6.26,16.95,13.9,16.95h1.95c9.02,43.51,48.29,76.27,95.37,76.27s86.35-32.75,95.37-76.27h1.95c7.65,0,13.9-7.63,13.9-16.95s-6.26-16.95-13.9-16.95Z"/>
        <path class="cls-1" d="m169.9,76.52c-3.24,0-5.87-2.63-5.87-5.87,0-14.56-11.85-26.41-26.41-26.41-3.24,0-5.87-2.63-5.87-5.87s2.62-5.87,5.87-5.87c21.03,0,38.14,17.11,38.14,38.14,0,3.24-2.62,5.87-5.87,5.87Z"/>
      </g>
    </g>
  </g>
</svg>