<?xml version="1.0" encoding="UTF-8"?>
<svg id="Orange" data-name="Orange" xmlns="http://www.w3.org/2000/svg" viewBox="0 0 255.34 306">
  <defs>
    <style>
      .cls-1 {
        fill: #eeb348;
      }

      .cls-1, .cls-2, .cls-3 {
        stroke-width: 0px;
      }

      .cls-2 {
        fill: #83bb44;
      }

      .cls-3 {
        fill: #72b343;
      }

    </style>
  </defs>
  <g id="Layer_1-2" data-name="Layer 1">
    <g id="Orange">
      <g>
        <path class="cls-1" d="m255.34,184.24c0,13.67-2.34,26.8-6.72,39.05-.31.92-.65,1.88-1.04,2.8-.69,1.84-1.46,3.69-2.27,5.53-.42.92-.85,1.8-1.27,2.73-1.27,2.65-2.65,5.3-4.07,7.87-1,1.73-2.04,3.46-3.11,5.15-1.08,1.65-2.19,3.3-3.34,4.95-.58.81-1.15,1.61-1.77,2.46-1.19,1.54-2.34,3.03-3.53,4.49-4.84,5.91-10.25,11.37-16.17,16.32-1.46,1.23-2.96,2.46-4.49,3.61-1.54,1.19-3.11,2.34-4.68,3.42-1.57,1.11-3.19,2.15-4.8,3.19-.08.04-.12.08-.19.12-1.61,1-3.22,2-4.88,2.92-1.5.85-2.99,1.65-4.49,2.46-.23.12-.46.23-.69.35-1.61.81-3.22,1.57-4.84,2.34-.15.08-.31.15-.46.19-7.18,3.3-14.74,5.95-22.58,7.87-3.92,1-7.91,1.8-11.98,2.38-2.77.42-5.58.73-8.42.99-.98.09-1.96.17-2.95.24-.32.02-.63.06-1.21.08v-.04c-2.39.16-5.05.31-7.73.31-20.77,0-40.36-4.72-57.67-13.13-26.03-12.56-46.92-33.41-58.86-58.86C3.95,218.8,0,201.94,0,184.24,0,117.01,57.17,62.48,127.67,62.48c2.7,0,5.35.12,8.11.28h0c-.05,0,.02,0,.09,0,.22.01.44,0,.66.02,3.88.23,7.68.65,11.44,1.27,1.34.15,2.65.38,3.96.65.68.11,1.32.3,1.99.43,2.03.39,4.05.82,6.04,1.3,7.83,1.92,15.4,4.57,22.58,7.87,1.77.81,3.53,1.65,5.3,2.53.23.12.46.23.69.35,1.5.81,3,1.61,4.49,2.46,1.65.92,3.26,1.92,4.88,2.92.08.04.12.08.19.12,1.61,1.04,3.23,2.07,4.8,3.19,1.57,1.08,3.15,2.23,4.68,3.42,1.54,1.15,3.03,2.38,4.49,3.61,5.91,4.95,11.33,10.41,16.17,16.32,1.19,1.46,2.34,2.96,3.53,4.49.61.84,1.19,1.65,1.77,2.46,1.15,1.65,2.27,3.3,3.34,4.95,1.07,1.69,2.11,3.42,3.11,5.15,1.42,2.57,2.8,5.22,4.07,7.87.42.92.84,1.8,1.27,2.73.81,1.84,1.57,3.69,2.27,5.53.38.92.73,1.88,1.04,2.8,1.04,2.84,1.92,5.72,2.69,8.64.23.77.42,1.54.61,2.3,2.23,9.02,3.42,18.43,3.42,28.11Z"/>
        <g>
          <path class="cls-3" d="m183.23,49.89c-9.02,9.02-20.35,14.05-31.29,14.82-.08,0-.19.04-.27,0-5.15.35-10.21-.27-14.9-1.88-.08.04-.15,0-.23-.04-.31-.08-.58-.19-.88-.31L191.83,6.34l3.99-4.03c1.23,3.26,1.96,6.68,2.19,10.21,1,12.67-4.07,26.61-14.78,37.36Z"/>
          <path class="cls-2" d="m195.83,2.31l-3.99,4.03-56.18,56.14c-5.57-14.9-1.11-33.83,12.59-47.57C159,4.19,172.94-.88,185.61.12c3.53.23,6.95.96,10.21,2.19Z"/>
        </g>
      </g>
    </g>
  </g>

</svg>