<?xml version="1.0" encoding="UTF-8"?>
<svg id="Passion Fruit" data-name="Passion Fruit" xmlns="http://www.w3.org/2000/svg" viewBox="0 0 223.08 220.49">
  <defs>
    <style>
      .cls-1 {
        fill: #cf1d61;
      }

      .cls-1, .cls-2, .cls-3, .cls-4, .cls-5, .cls-6 {
        stroke-width: 0px;
      }

      .cls-2 {
        fill: #fff;
      }

      .cls-3 {
        fill: #b31e58;
      }

      .cls-4 {
        fill: #fee600;
      }

      .cls-5 {
        fill: #d6bb39;
      }

      .cls-6 {
        fill: #d2a22a;
      }
    </style>
  </defs>
  <g id="Layer_1-2" data-name="Layer 1">
    <g id="Passion_Fruit" data-name="Passion Fruit">
      <path class="cls-5" d="m158.24,0l6.94,4.76-33.27,48.55-6.94-4.76L158.24,0Z"/>
      <path class="cls-5" d="m117.64,36.54c4.39-4.85,11.69-7.5,16.74-4.69l8.36,5.15c5.05,2.81,7.1,10,4.36,17.65-3.48,6.11-4.9,11.33-15.66,5.41l-8.39-5.1c-12.59-7.13-9.68-13.48-5.41-18.42h0Z"/>
      <path class="cls-1" d="m5.11,114.01c0,45.75,37.09,82.84,82.84,82.84s82.84-37.09,82.84-82.84c0-45.75-37.08-82.84-82.83-82.85-45.75,0-82.84,37.08-82.85,82.83v.02h0Z"/>
      <path class="cls-3" d="m88.07,202.08C39.51,202.08,0,162.57,0,114.01S39.51,25.94,88.07,25.94s88.07,39.51,88.07,88.07-39.51,88.07-88.07,88.07Zm0-165.68c-42.8,0-77.61,34.82-77.61,77.61s34.82,77.61,77.61,77.61,77.61-34.82,77.61-77.61-34.82-77.61-77.61-77.61Z"/>
      <path class="cls-2" d="m70.45,141.62c0,40.67,32.96,73.65,73.64,73.66,40.67,0,73.65-32.96,73.66-73.64v-.02c0-40.67-32.96-73.65-73.64-73.66-40.67,0-73.65,32.96-73.66,73.64v.02Z"/>
      <path class="cls-3" d="m144.21,220.49c-43.49,0-78.86-35.38-78.86-78.86s35.38-78.86,78.86-78.86,78.86,35.38,78.86,78.86-35.38,78.86-78.86,78.86Zm0-147.27c-37.72,0-68.41,30.69-68.41,68.41s30.69,68.41,68.41,68.41,68.41-30.69,68.41-68.41-30.69-68.41-68.41-68.41h0Z"/>
      <path class="cls-4" d="m84.49,141.63c0,33.04,26.79,59.83,59.83,59.83s59.83-26.79,59.83-59.83c0-33.04-26.78-59.83-59.82-59.84-33.04,0-59.83,26.78-59.84,59.82h0s0,.01,0,.01Z"/>
      <path class="cls-6" d="m140.2,136.23c1.63,2.71,5.32,3.49,9.27,1.11,3.95-2.38,5.82-6.5,4.19-9.22l-.84.51c-1.63-2.71-5.32-3.49-9.27-1.11-3.95,2.38-5.82,6.5-3.35,8.71Z"/>
      <path class="cls-6" d="m180.71,160.14c1.79,2.98,5.22,4.19,9.55,1.59,4.33-2.61,6.38-7.13,4.59-10.11l-1.53.92c-1.44-2.39-5.44-2.63-8.92-.54-3.48,2.1-5.14,5.74-3.7,8.14Z"/>
      <path class="cls-6" d="m153.34,185.48c2.67-.84,3.84-4.66,2.62-8.54s-4.38-6.34-7.04-5.5c0,0,0,0,0,0-2.67.84-3.84,4.66-2.62,8.54s4.38,6.34,7.04,5.5c0,0,0,0,0,0Z"/>
      <path class="cls-6" d="m138.6,155.1c2.67-.84,3.84-4.66,2.62-8.54s-4.38-6.34-7.04-5.5c0,0,0,0,0,0-2.67.84-3.84,4.66-2.62,8.54s4.38,6.34,7.04,5.5c0,0,0,0,0,0Z"/>
      <path class="cls-6" d="m128.24,175.79c1.55,2.58,5.37,3.12,9.12.86,3.75-2.26,5.53-6.17,3.97-8.75l-.48.29c-1.51-2.5-5.4-2.93-9.04-.73s-5.37,6-3.58,8.33Z"/>
      <path class="cls-6" d="m146.14,155.6c-1.69,2.23-.43,6.03,2.82,8.48,3.24,2.45,7.24,2.64,8.93.41,1.69-2.23.43-6.03-2.82-8.48-3.24-2.45-7.24-2.64-8.93-.41Z"/>
      <path class="cls-6" d="m156.02,149.49c2.63.94,5.87-1.41,7.23-5.24,1.36-3.83.33-7.7-2.3-8.63h0c-5.35-1.9-9.38-4.28-12.14,3.5-2.76,7.78-.67,15.62,7.22,10.38Z"/>
      <path class="cls-6" d="m167.82,124.26c2.31,3.84,4.91,6.52,10.5,3.15,5.59-3.37,8.24-9.21,5.93-13.05l-3.81,2.29c1.47-3.18-2.83-6.12-6.3-6.35-3.47-.23-7.48,2.15-8.95,5.33-1.47,3.18.16,5.94,3.63,6.17.03,0,.06,0-1,2.45Z"/>
      <path class="cls-6" d="m191.95,124.47c-3.03-.94-6.3.92-7.67,5.32-1.37,4.4-.03,8.73,3.29,8.74,2.87.89,6.09-1.24,7.39-5.41,1.3-4.18.03-8.29-2.84-9.18l-.17.53Z"/>
      <path class="cls-6" d="m103.59,129.99c-2.71-.84-5.86,1.57-7.09,5.51-1.23,3.93-.03,7.81,2.68,8.65l.03-.09c1.84,2.5,5.68,1.34,7.96-1.75s2.65-7.61.82-10.11c-1.06-1.44-2.68-1.95-4.4-2.2Z"/>
      <path class="cls-6" d="m113.71,151.25c-2.64.92-3.69,4.78-2.35,8.62,1.34,3.84,4.57,6.2,7.21,5.28h0c2.64-.92,3.69-4.78,2.35-8.62-1.34-3.84-4.57-6.2-7.21-5.28h0Z"/>
      <path class="cls-6" d="m177.23,134.6c-3.03-.94-6.3.92-7.67,5.32-1.37,4.4-.03,8.73,3.29,8.74,3.03.94,6.3-.92,7.67-5.32,1.37-4.4.03-8.73-3-9.68l-.29.94Z"/>
      <path class="cls-6" d="m171.16,158.27c-2.76.42-4.5,4.02-3.89,8.04.62,4.02,3.36,6.93,6.12,6.51,0,0,0,0,.01,0,2.76-.43,4.5-4.03,3.88-8.05-.62-4.02-3.36-6.93-6.13-6.5h0Z"/>
      <path class="cls-6" d="m115.93,171.16c-2.76.42-4.5,4.02-3.88,8.04.62,4.02,3.36,6.93,6.12,6.51,0,0,0,0,0,0,2.76-.42,4.5-4.02,3.88-8.04-.62-4.02-3.36-6.93-6.12-6.51h0Z"/>
      <path class="cls-6" d="m121.08,108.83c-3.17-.99-6.5.62-7.94,5.24-1.44,4.62-.03,9.16,3.56,8.82,3.17.99,6.5-.62,7.94-5.24,1.44-4.62.03-9.16-3.14-10.15l-.41,1.33Z"/>
      <path class="cls-6" d="m130.92,113.14c-1.39,2.43.36,6.03,3.89,8.04,3.53,2.01,7.52,1.68,8.91-.75,0,0,0,0,0,0,1.39-2.43-.36-6.03-3.89-8.04-3.53-2.01-7.52-1.68-8.91.75,0,0,0,0,0,0Z"/>
      <path class="cls-6" d="m154.63,106.01c-2.69.76-3.98,4.55-2.87,8.46,1.1,3.91,4.18,6.47,6.87,5.71,2.69-.76,3.98-4.55,2.87-8.46-1.1-3.91-4.18-6.47-6.87-5.71Z"/>
      <path class="cls-6" d="m125.48,127.9c-3.97-.58-7.4.47-8.24,6.24-.84,5.77,1.7,10.92,6.12,8.33,3.97.58,7.4-.47,8.24-6.24s-1.7-10.92-5.66-11.5l-.46,3.16Z"/>
      <path class="cls-6" d="m130.52,99.45c-.73,2.7,1.86,5.75,5.78,6.81,3.93,1.06,7.7-.26,8.43-2.96.73-2.7-1.86-5.75-5.78-6.81-3.93-1.06-7.7.26-8.43,2.96Z"/>
      <path class="cls-6" d="m154.19,93.8c-1.36,2.44.42,6.03,3.97,8,3.55,1.98,7.54,1.6,8.9-.84,1.36-2.44-.42-6.03-3.97-8-3.55-1.98-7.54-1.6-8.9.84Z"/>
    </g>
  </g>
</svg>