<?xml version="1.0" encoding="UTF-8"?>
<svg id="Pineapple" data-name="Pineapple" xmlns="http://www.w3.org/2000/svg" viewBox="0 0 285.64 364">
  <defs>
    <style>
      .cls-1 {
        fill: #fbab36;
      }

      .cls-1, .cls-2, .cls-3 {
        stroke-width: 0px;
      }

      .cls-2 {
        fill: #5d913f;
      }

      .cls-3 {
        fill: #ffcc4d;
      }
    </style>
  </defs>
  <g id="Layer_1-2" data-name="Layer 1">
    <g id="Pineapple">
      <path class="cls-2" d="m156.41,93.39c-2.84-33.94,22.27-48.44,22.27-48.44-32.83,1.16-50.23,29-50.23,29-7.72-13.34,9.71-41.18,22.26-48.43-32.82,1.16-37.67,21.76-37.67,21.76C97.62,20.59,102.48,0,102.48,0c-11.5,6.64-18.13,21.69-21.97,36.04l-23.79-27.4c-2.36,10.71,1.61,32.58,5.88,50.89-31.35-18.37-60.58-1.54-60.58-1.54,40.54,12.19,55.93,38.88,55.93,38.88,0,0-40.52-12.18-57.95,15.66,26.65-.94,46.18,5.12,60.1,12.62-11.94,2.97-32.28-2.42-44.7,14.07,0,0,32.82-1.16,39.52,10.83-22.29,6.3-36.69,23.1-36.69,23.1,45.38-8.4,93.63,17.13,93.63,17.13l62.8-36.25c-10.56-47.28,27.12-69.04,27.12-69.04-27.96-19.45-45.37,8.4-45.37,8.4h0Z"/>
      <path class="cls-1" d="m272.58,229.35c25.53,44.22,12.5,99.55-29.12,123.58-41.62,24.03-96.05,7.66-121.58-36.56l-16.31-28.25c-25.53-44.23-12.49-99.54,29.12-123.57,41.62-24.03,96.05-7.67,121.58,36.56l16.31,28.24h0Z"/>
      <path class="cls-3" d="m282.83,254.84c-2.21-8.94-5.67-17.52-10.28-25.49l-1.91-3.31h0s-20.02-8.49-20.02-8.49l6.4-15.1-.77-1.34c-20.78-36.02-60.76-53.54-97.36-45.83l-8.4,19.77-19.34-8.21c-33.66,21.78-46.87,64.85-33.48,103.94l10.32,4.38-4.12,9.71c.56,1.08,1.05,2.18,1.67,3.23l16.31,28.25c6.77,11.72,15.92,21.89,26.87,29.86l2.35-5.52,20.02,8.5-3.33,7.84c6.79,2.81,13.89,4.78,21.15,5.87l2.21-5.2,14.4,6.11c11.96-.49,23.67-3.58,34.31-9.06l-.17-.07,8.5-20.02,12.2,5.17c5.34-5.3,9.94-11.29,13.69-17.82l-17.38-7.39,8.5-20.02,17.11,7.26c1.96-7.18,3.09-14.65,3.24-22.24l-11.85-5.03,8.5-20.02.64.3h0Zm-63.72-74.34l20.01,8.51-8.5,20.01-20.02-8.5,8.51-20.02h0Zm3.02,48.55l-8.5,20.01-20.02-8.49,8.5-20.02,20.02,8.5Zm-43.07-65.55l20.02,8.5-8.51,20.03-20.02-8.5,8.51-20.03Zm-17,40.05l20.02,8.5-8.5,20.02-20.01-8.5,8.49-20.02Zm-40.05-16.99l20.01,8.5-8.5,20-20.01-8.5,8.5-20h0Zm-25.49,60.07l8.5-20.03,20.02,8.5-8.51,20.03-20.01-8.5Zm43.06,65.53l-20.02-8.49,8.5-20.02,20.02,8.5-8.5,20.01Zm-3.03-48.54l8.51-20.02,20.02,8.49-8.51,20.03-20.02-8.5Zm43.06,65.54l-20.01-8.5,8.5-20.01,20.01,8.51-8.5,20Zm-3.02-48.54l8.5-20.03,20.02,8.51-8.5,20.03-20.02-8.51Zm43.07,65.56l-20.02-8.5,8.5-20.02,20.02,8.5-8.5,20.02Zm17.01-40.07l-20.01-8.49,8.5-20.03,20.01,8.5-8.5,20.02Zm17-40.04l-20.02-8.5,8.5-20.01,20.02,8.49-8.5,20.02Z"/>
    </g>
  </g>

</svg>