<?xml version="1.0" encoding="UTF-8"?>
<svg id="logo" data-name="logo" xmlns="http://www.w3.org/2000/svg" viewBox="0 0 338.67 56.94">
  <defs>
    <style>
      .cls-1, .cls-2 {
        stroke-width: 0px;
      }

      .cls-2 {
        fill: #fff;
      }

    </style>
  </defs>
  <g id="Layer_1-2" data-name="Layer 1">
    <g id="Quatro">
      <path id="U" class="cls-1" d="m67.35,33.15V3.88c0-1.61,1.31-2.92,2.92-2.92h.41c1.61,0,2.92,1.31,2.92,2.92v29.27c0,10.57,6.97,18.1,16.74,18.1s16.74-7.53,16.74-18.1V3.88c0-1.61,1.31-2.92,2.92-2.92h.41c1.61,0,2.92,1.31,2.92,2.92v29.27c0,13.93-9.53,23.78-22.98,23.78s-22.98-9.85-22.98-23.78Z"/>
      <path id="A" class="cls-1" d="m163.87,43.48h-26.87c-1.16,0-2.2.68-2.67,1.74l-3.99,9.01c-.47,1.06-1.51,1.74-2.67,1.74h-.43c-2.11,0-3.52-2.17-2.67-4.1L146.26,2.7c.47-1.06,1.51-1.74,2.67-1.74h3c1.16,0,2.2.68,2.67,1.74l21.69,49.17c.85,1.93-.56,4.1-2.67,4.1h-.43c-1.16,0-2.2-.68-2.67-1.74l-3.99-9.01c-.47-1.06-1.51-1.74-2.67-1.74Zm-2.47-10.02l-8.26-18.76c-1.02-2.32-4.31-2.32-5.34,0l-8.32,18.76c-.86,1.93.56,4.1,2.67,4.1h16.58c2.11,0,3.52-2.17,2.67-4.1Z"/>
      <path id="T" class="cls-1" d="m194.88,6.89h-12.66c-1.61,0-2.92-1.31-2.92-2.92v-.09c0-1.61,1.31-2.92,2.92-2.92h37.4c1.61,0,2.92,1.31,2.92,2.92v.09c0,1.61-1.31,2.92-2.92,2.92h-12.66c-1.61,0-2.92,1.31-2.92,2.92v43.25c0,1.61-1.31,2.92-2.92,2.92h-.41c-1.61,0-2.92-1.31-2.92-2.92V9.81c0-1.61-1.31-2.92-2.92-2.92Z"/>
      <path id="R" class="cls-1" d="m262.42,38.93l8.72,12.45c1.36,1.94-.03,4.6-2.39,4.6h0c-.95,0-1.84-.46-2.39-1.24l-12.19-17.3c-.55-.78-1.44-1.24-2.39-1.24h-10.14c-1.61,0-2.92,1.31-2.92,2.92v13.94c0,1.61-1.31,2.92-2.92,2.92h-.41c-1.61,0-2.92-1.31-2.92-2.92V3.88c0-1.61,1.31-2.92,2.92-2.92h19.42c11.37,0,20.26,7.29,20.26,17.62,0,7.4-4.57,13.27-11.35,15.97-1.75.7-2.39,2.84-1.31,4.38Zm-23.69-11.58c0,1.61,1.31,2.92,2.92,2.92h12.05c8.97,0,15.05-4.32,15.05-11.69s-6.09-11.69-15.05-11.69h-12.05c-1.61,0-2.92,1.31-2.92,2.92v17.54Z"/>
      <path id="O" class="cls-1" d="m282.37,28.43c0-15.46,12.97-28.43,28.19-28.43s28.11,12.97,28.11,28.43-12.81,28.51-28.11,28.51-28.19-13.05-28.19-28.51Zm49.97,0c0-12.25-9.93-22.66-21.78-22.66s-21.86,10.41-21.86,22.66,10.01,22.74,21.86,22.74,21.78-10.41,21.78-22.74Z"/>
      <g id="Q">
        <path class="cls-1" d="m52.13,47.71l1.97,1.71c1.21,1.06,1.34,2.89.29,4.11l-.19.21c-1.06,1.23-2.91,1.36-4.13.29l-2.39-2.09c-1.02-.9-2.52-.95-3.63-.16-4.56,3.24-10.02,5.15-15.87,5.15C12.97,56.94,0,43.88,0,28.43S12.97,0,28.19,0s28.11,12.97,28.11,28.43c0,5.65-1.72,10.95-4.65,15.43-.81,1.24-.62,2.88.49,3.85Zm-13.71-3.78l-3.48-3.02c-1.21-1.05-1.35-2.89-.3-4.11l.2-.23c1.05-1.22,2.9-1.36,4.12-.3l3.99,3.45c1.45,1.26,3.68.78,4.54-.94,1.56-3.11,2.47-6.64,2.47-10.34,0-12.25-9.93-22.66-21.78-22.66S6.33,16.18,6.33,28.43s10.01,22.74,21.86,22.74c3.46,0,6.76-.88,9.7-2.45,1.81-.96,2.08-3.44.54-4.79Z"/>
        <rect class="cls-2" x="42.87" y="33.54" width="3.57" height="23.43" rx="1.57" ry="1.57" transform="translate(108.09 41.2) rotate(130.96)"/>
      </g>
    </g>
  </g>
</svg>